<svg version="1" xmlns="http://www.w3.org/2000/svg" width="1738.667" height="1738.667" viewBox="0 0 1304.000000 1304.000000"><path d="M482.9.4c-.2.2-3.5.7-7.4 1.1-7.4.6-21 2.7-25.5 3.8-1.4.4-6.7 1.5-10 2.1-.8.2-2.2.5-3 .8-1.8.7-13.1 4-14.5 4.3-.5.1-1.9.5-3 .9-1.1.5-3.3 1.2-5 1.8-1.6.5-3.9 1.4-5 1.9-1.1.4-4.9 2-8.5 3.5-8.2 3.3-24.4 11.5-24.8 12.6-.2.4-1 .8-1.8.8s-2 .5-2.7 1c-.7.6-4.8 3.4-9.2 6.3-4.4 2.8-8.7 5.7-9.5 6.4-.8.6-4.2 3.3-7.5 6-9 7.1-20.7 18.2-28 26.4-7.3 8.2-19 24.6-24.1 33.9-1 1.9-2.1 3.7-2.4 4-1.2 1.2-7 13.9-7 15.4 0 .9-.4 1.6-1 1.6-.5 0-1 .8-1 1.8s-.4 2.2-.8 2.7c-1.5 1.7-7.1 19.9-8.6 27.7-.2 1.2-.7 3.4-1 4.8-.8 3.5-1.5 7.5-2.4 14-1 7.5-.9 241.7.1 245.5.4 1.6 1 4.3 1.3 6 .7 3.5 4 13.7 5.9 18 3.7 8.5 7 15 7.7 15.3.5.2.6.7.3 1.2-.3.4.2 1.3 1 2s1.5 1.7 1.5 2.2c0 .6 3.2 5.8 7.2 11.7 8.4 12.5 15.1 21.2 26.8 34.5 5.2 5.9 37 37.6 42.2 42.1 2 1.6 7.7 6.8 12.9 11.5 5.1 4.7 10.8 9.8 12.7 11.5 1.8 1.6 4.8 4.3 6.6 6 1.8 1.6 6.3 5.7 10 9 3.8 3.3 8 7.1 9.5 8.5 1.5 1.4 6.5 5.9 11.2 10.1 4.6 4.2 11.6 10.4 15.4 13.9 3.9 3.5 7.8 7.1 8.9 7.9 1 .9 3 2.7 4.6 4.1 7 6.4 20.8 18.9 24.9 22.5 2.5 2.2 5.2 4.7 6.1 5.5 2.7 2.5 19.1 17.4 21.3 19.3 2 1.7 15.2 13.7 20.7 18.7 4.6 4.2 19.2 17.4 21.4 19.3 1.2 1 6.1 5.5 11 10 4.8 4.5 10.1 9.3 11.6 10.7 6.9 6.3 21.7 19.8 25.1 23 2 1.9 7.9 7.3 13 12s11.4 10.5 14 13c2.5 2.5 9.9 9.4 16.4 15.5 20.1 18.8 41.9 39.5 59.5 56.5 4.8 4.7 11.5 11.1 14.8 14.2 7.4 7.1 13.7 14.6 18.3 21.8 4 6.2 8.9 16.4 8.9 18.4 0 .7.3 1.6.8 2 .4.4.8 1.2.8 1.7.1.5.2 1 .4 1.1.1.2.3 1.2.5 2.2.2 1.1.7 3.1 1.1 4.5.4 1.4.8 3.4.9 4.3.2 1 .4 1.9.5 2 1.1 1.1.5 26-.7 32.1-.8 3.9-1.6 7.9-1.8 8.7-.4 2.4-1.1 4.4-5.6 14.5-5.4 12.4-17.6 27.5-29.3 36-3.3 2.5-6.5 4.9-7.1 5.3-1.9 1.5-16 7.9-20 9.1-2.2.7-4.7 1.5-5.5 1.8-3.5 1.4-9.8 2.3-19 2.9-9.4.6-8.5.6-15 0-5.7-.6-6.3-.7-14.2-2.5-21.8-5-44.8-21.4-57.1-40.8-4.9-7.7-9.2-16.5-10.2-20.6-.4-1.5-1.1-3-1.6-3.3-.5-.3-.7-.9-.4-1.4.3-.5.1-1.9-.4-3.3-2.8-7.4-3-10.4-3-75.2 0-17.6 0-38.2.1-39v-28c-.1-32.9-.1-26.9-.2-52.5l-.1-21.5-10.2.2c-5.6.1-10.4.3-10.7.4-.3.1-.9 0-1.5-.1-.8-.2-12-.1-19.5.1-.8 0-6.4-.1-12.5-.2-6-.1-11.4 0-12 .1-.5.1-1.3.1-1.7 0-1-.2-7.6-.2-8.5 0-.5.1-1.2.1-1.8 0-1.3-.2-8.7-.2-10 0-.5.1-1.4.1-2 0-1.3-.3-22.7-.3-24 0-.5.1-1.3.1-1.7 0-.5-.1-2.4-.2-4.3-.2s-3.8.1-4.2.2c-.5.1-1.2.1-1.8 0-1.3-.2-8.7-.2-10 0-.5.1-1.4.1-2 0-1.3-.3-22.7-.3-24 0-.5.1-1.3.1-1.7 0-.5-.1-2.4-.2-4.3-.2s-3.8.1-4.2.2c-.5.1-1.2.1-1.8 0-1.3-.2-8.7-.2-10 0-.5.1-1.4.1-2 0-1.3-.3-22.7-.3-24 0-.5.1-1.3.1-1.7 0-.5-.1-2.4-.2-4.3-.2s-3.8.1-4.2.2c-.5.1-1.2.1-1.8 0-1.3-.2-8.7-.2-10 0-.5.1-1.4.1-2 0-1.2-.2-20.6-.2-22 0-.5.1-1.4.2-2 0-3-.6-9.5-.4-9.5.3 0 .5-.5.5-1 .2-.9-.5-12.8-.9-17.8-.6-1 .1-1.2 30.4-.9 161.8.2 89 .6 162.7.9 163.8.3 1.1.8 4.5 1.3 7.5.4 3 .9 6.4 1.2 7.5.2 1.1.6 3.1.9 4.5.2 1.4 1.5 6.8 2.9 12s3 11.3 3.6 13.5c.6 2.1 1.6 5.3 2.3 7 .8 1.6 2.4 5.7 3.7 9 4.2 11.1 14.1 29.7 22.2 41.9 4.4 6.7 8.3 12.3 8.6 12.6.4.3 2.6 3 5.1 6 8.9 10.9 17 19.3 27.3 28.3 8 7 24.9 19.7 26.4 19.7.6 0 1.3.4 1.5.8.8 2.1 33.1 19.2 36.3 19.2.7 0 1.6.4 1.9.9.3.5 5.2 2.3 10.8 4.1 5.7 1.8 11.2 3.6 12.3 4.1 2.5.9 17.7 4.6 22.5 5.3 1.9.4 4.6.8 6 1.1 1.4.3 4.8.7 7.5 1 2.8.2 7.7.7 11 1.1 7.9.9 321.1.9 334 0 5.5-.3 11.1-.8 12.5-1 1.4-.3 4.1-.7 6-1 5.7-.9 9.3-1.6 12-2.2 1.4-.3 3.6-.8 5-1 4.6-.9 10.4-2.5 20-5.7 5.2-1.7 9.7-3.2 10-3.3.6-.1 6.1-2.5 16.3-7.1 8.7-3.9 21.3-10.7 24-13.1.9-.8 1.7-1.2 1.7-.8 0 .4 1-.2 2.2-1.4 1.2-1.1 2.6-2 3.1-2 .4 0 1.4-.6 2.1-1.3.8-.6 2.4-1.9 3.6-2.7 15.1-10.1 36.2-30.1 47.8-45.3 2-2.6 4-4.7 4.5-4.7.4 0 .6-.4.2-.9-.3-.6 0-1.3.7-1.8 1.6-1 5.8-6.9 5.8-8.2 0-.5.4-1.1.8-1.3 2.8-1.1 22.3-38.4 21.9-41.8-.1-.3.6-1.9 1.5-3.5 1.5-2.7 4.9-11.2 4.7-11.8 0-.1.2-.9.5-1.7.7-2 2.9-10.1 3.2-11.9.2-.8.6-2.6 1-4s.8-2.8.9-3.1c.2-.9 1.6-8.5 2-11.5.2-1.7.6-4.1.9-5.4.3-1.3.9-5.6 1.3-9.5 1-9.2 1-313.6 0-319.6-3.1-18.8-5.1-26.6-10.2-40-3.4-8.9-14.4-30.3-16.4-32-.3-.3-1.2-1.7-2-3.2-.7-1.4-2.5-3.9-4-5.5-1.4-1.6-4.5-5.4-6.8-8.4-4.6-5.8-15.8-17-23.7-23.4-2.7-2.2-5.5-4.6-6.2-5.3-.7-.6-1.6-1.2-2-1.2-.4 0-1.2-.6-1.8-1.3-.6-.8-6-5.4-12.1-10.2-6-4.9-12.6-10.3-14.6-12-2-1.6-5-4.1-6.7-5.5-1.6-1.4-5-4.1-7.3-6-2.4-1.9-5.4-4.5-6.7-5.8-1.2-1.2-2.5-2.2-2.8-2.2-.4 0-8.1-6.3-22.4-18.4-3-2.5-12.7-10.5-15.3-12.6-1.1-.8-2.4-2-3.1-2.5-.6-.6-3.8-3.2-7.1-6-3.3-2.7-6.2-5.2-6.5-5.5-.3-.3-2.5-2.1-5-4s-5.2-4.1-6-5c-.8-.8-4.6-4.1-8.5-7.2-8.6-7-21.2-17.4-28.5-23.8-3-2.6-9.5-8-14.5-12.1-4.9-4-9.2-7.6-9.5-8-.4-.5-10.6-9-14.8-12.4-.7-.5-2.1-1.7-3-2.6-.9-.9-4.6-4-8.2-7-8.1-6.8-10.6-8.9-13.3-11.2-1.2-1-4.4-3.7-7.2-6-2.7-2.3-5.6-4.9-6.5-5.7-.8-.8-2.8-2.5-4.4-3.8-1.6-1.2-5.4-4.4-8.5-7.1-3.1-2.7-9.4-8.1-14.1-12.1-4.7-3.9-10.5-8.9-13-11-2.5-2.2-5.5-4.7-6.6-5.7-6.6-5.6-14-12-15.4-13.3-.9-.8-3.6-3.1-6-5.1-2.5-2-5.9-4.9-7.6-6.5-1.7-1.6-5.1-4.5-7.4-6.4-2.3-1.9-5.2-4.4-6.4-5.5-2.3-2-10.7-9.3-17.4-15-2-1.7-4.6-3.9-5.8-5-1.2-1.1-4.1-3.6-6.5-5.6-2.4-2.1-5.7-4.9-7.2-6.3-1.5-1.4-3.3-2.6-3.9-2.6-.6 0-.8-.3-.5-.7.4-.3-.4-1.4-1.7-2.2-1.3-.9-5.2-4.1-8.6-7.1-3.4-3-8.3-7.3-10.8-9.5s-5.3-4.7-6.2-5.5c-.9-.8-6.2-5.5-11.8-10.3l-10.2-8.8 2.2-3.2c2-2.8 7.2-8.1 15-15.3 3.8-3.4 20-14.4 21.4-14.4.7 0 1.4-.3 1.6-.8.6-1.4 17.5-8.5 18.8-7.9.3.1 1.8-.6 3.3-1.6 1.5-.9 2.7-1.6 2.7-1.3 0 .2 2.6-.2 5.8-.9 8.1-1.9 13.8-2.7 20.7-3 3.3-.2 6.2-.4 6.5-.5.3-.1 1-.1 1.5 0 .6.1 4.8.3 9.4.5 8.3.3 21.1 2.4 22.1 3.5.3.3 1.2.6 2 .6 4.4.1 21.9 7.2 31 12.5 21.6 12.7 39.1 31.3 50.3 53.5 7 14 11.9 30.9 13.2 46.1.2 2.3.6 4.7.9 5.2.4.5.2 1.2-.3 1.5-.5.3-.6 2.1-.1 4 .4 1.9.4 4-.1 4.7-.4.7-.3 1.9.2 2.5.6.7.6 1.4.2 1.7-.5.3-.6 3.7-.3 7.5.3 3.9.2 8.1-.1 9.4-.3 1.3-.3 3 .1 3.8.4.8.4 2.4 0 3.5s-.4 2.9 0 4.1c.5 1.1.4 2.7 0 3.4-.5.9-.4 2 .2 2.7.6.7.6 1.3.1 1.3s-.7 2.1-.3 5c.4 2.7.4 5 .1 5-.8 0-.5 7.6.4 9 .3.6 2.1 1 3.9.8 1.7-.1 3.7.1 4.3.5.6.4 1.4.3 1.8-.2.4-.7 1.5-.7 3-.1 1.4.5 2.5.6 2.5.2 0-.4 1.1-.7 2.5-.7s2.5.3 2.5.7c0 .4 1.1.3 2.5-.2 1.5-.6 2.6-.6 3 0 .4.6 1.3.7 2.3.1 1.1-.6 2.4-.6 3.4 0s1.9.6 2.3 0c.4-.7 1.5-.7 3-.1s2.5.6 2.5 0c0-.5 1.2-.5 3 0 1.7.5 3 .5 3 0s1.2-.5 2.8-.1c1.5.4 3.9.4 5.5 0 1.5-.4 2.7-.3 2.7.2 0 .6.7.6 1.8 0s2.4-.6 3.4 0 1.9.6 2.3 0c.4-.7 1.5-.7 3-.1s2.5.6 2.5 0c0-.5 1.2-.5 2.8-.1 1.5.4 3.9.4 5.5 0 1.5-.4 2.7-.3 2.7.2 0 .6.7.6 1.8 0s2.4-.6 3.4 0 1.9.6 2.3 0c.4-.7 1.5-.7 3-.1s2.5.6 2.5 0c0-.5 1.2-.5 2.8-.1 1.5.4 3.9.4 5.5 0 1.5-.4 2.7-.3 2.7.1 0 .5 1.4.5 3 0 1.7-.5 3-.6 3-.2 0 .8 6.2.8 7.6 0 .5-.3 1.8-.2 2.9.2 1.1.4 3 .4 4.2-.1 1.3-.5 2.5-.4 2.8.2.4.5 1.1.6 1.8.2 1.6-1 5.7-1 5.7 0 0 .4.8.3 1.8-.2 1.1-.6 2.4-.6 3.5 0 .9.6 1.7.6 1.7.2 0-1 4.1-1 5.7 0 .7.4 1.4.3 1.8-.2.3-.6 1.5-.7 2.8-.2 1.2.5 3.2.5 4.4 0 1.3-.5 2.5-.4 2.8.2.4.5 1.1.6 1.8.2 1.6-1 5.7-1 5.7 0 0 .4.8.3 1.8-.2 1.1-.6 2.4-.6 3.5 0 .9.6 1.7.6 1.7.2 0-1 9.3-.8 10.9.2.6.3 1.1.2 1.1-.4 0-.6 1.1-.7 2.8-.2 1.5.5 3.6.5 4.7.1s3.1-.4 4.5 0 3.7.3 5.3-.1c1.5-.4 2.7-.3 2.7.2s1.1.4 2.5-.1c1.5-.6 2.6-.6 3 .1.4.6 1.3.6 2.3 0 1-.6 2.3-.6 3.4 0 1.2.6 1.8.6 1.8 0s1.1-.6 2.8-.2c1.5.4 3.9.4 5.5 0 1.5-.4 2.7-.3 2.7.2s1.1.4 2.5-.1c1.5-.6 2.6-.6 3 0 .4.6 1.3.7 2.4.1.9-.5 2.3-.6 3.1-.1.7.4 2.4.4 3.6 0 1.4-.6 2.6-.5 2.9 0 .4.6 1.3.7 2.3.1 1.1-.6 2.4-.6 3.5.1 1.7.9 1.8-4.6 1.4-123.4-.2-68.4-.7-125.4-1-126.8-.3-1.4-.8-4.3-1.2-6.5-1-6.1-3.3-17.6-4.4-21.3-.5-1.8-.9-3.3-.9-3.5.3-.4-6.4-20.3-8-23.7-7.5-17-18.6-37.3-24.3-44.4-.5-.6-3.7-4.7-7.1-9.1-17.9-23.1-42.3-44-68.3-58.5-9.3-5.2-10.9-6-12.2-6-.7 0-1.3-.3-1.3-.8 0-.4-2.2-1.5-5-2.5-2.7-1-5-2.2-5-2.8 0-.6-.4-.8-1-.4-.5.3-1.7.1-2.7-.4-3.4-1.8-9.1-4.1-10.1-4.1-.6 0-2.3-.5-3.9-1.2-4.5-1.8-24.6-7.3-30.3-8.2-1.9-.3-4.6-.8-6-1.1-1.4-.3-4.5-.8-7-1.1-2.5-.3-6.1-.8-8-1.1C824.2.6 483.6-.2 482.9.4z"/></svg>